<svg version="1.1" id="Layer_1" xmlns="http://www.w3.org/2000/svg" xmlns:xlink="http://www.w3.org/1999/xlink" x="0px" y="0px"
	 width="100%" viewBox="0 0 500 500" enable-background="new 0 0 500 500" xml:space="preserve">
<path fill="#171810" opacity="1.000000" stroke="none" 
	d="
M346.000000,501.000000 
	C230.666687,501.000000 115.833389,501.000000 1.000062,501.000000 
	C1.000041,334.333405 1.000041,167.666794 1.000021,1.000151 
	C167.666550,1.000101 334.333099,1.000101 500.999756,1.000050 
	C500.999817,167.666519 500.999817,334.333038 500.999908,500.999786 
	C449.500000,501.000000 398.000000,501.000000 346.000000,501.000000 
M229.975189,172.586151 
	C229.911987,172.306412 229.848785,172.026672 229.785583,171.746933 
	C229.620331,171.836227 229.455078,171.925522 229.289795,172.014801 
	C229.515396,172.359268 229.740997,172.703735 230.023544,173.720078 
	C230.033447,174.166321 230.043335,174.612549 229.427078,175.543228 
	C225.000839,171.971268 220.957962,167.574112 214.300842,168.218033 
	C215.873108,177.514008 221.104736,183.783554 228.185852,189.092926 
	C232.669693,192.454865 238.661209,194.763290 239.552078,201.685593 
	C239.895584,197.719360 240.092545,193.852753 239.842712,190.015228 
	C239.567764,185.791992 241.283966,182.944443 244.983948,181.205078 
	C248.746277,179.436386 252.622452,177.901398 256.335083,176.037582 
	C261.564636,173.412277 265.140289,169.309494 267.070465,163.450302 
	C256.366608,165.531570 244.451645,164.205307 240.023331,179.103867 
	C238.209808,168.768570 242.645050,161.678711 250.380463,160.000427 
	C253.468155,159.330521 256.570160,158.725876 259.668701,158.106796 
	C269.837372,156.074997 275.695007,149.902695 277.301666,139.861954 
	C271.035095,141.845383 264.700134,144.407394 258.116913,145.769623 
	C252.136002,147.007233 247.516861,149.340714 244.624527,154.838272 
	C244.279297,155.494400 242.974472,155.645691 242.680466,155.609192 
	C243.721573,152.347473 244.762680,149.085770 245.977982,145.278290 
	C244.677368,145.887146 243.933044,146.235596 243.142395,146.605728 
	C241.379227,134.346634 238.655624,129.695709 232.268829,127.960823 
	C230.264893,138.885849 233.460587,148.150101 240.926773,156.541519 
	C240.896057,156.923615 240.865341,157.305695 240.404068,158.164307 
	C240.313400,158.789062 240.222733,159.413834 239.874832,160.748398 
	C239.431885,162.469162 238.988937,164.189941 238.199997,167.254913 
	C235.487411,157.518372 233.388031,148.680649 223.918365,143.840836 
	C223.918365,145.491501 223.832123,146.594162 223.931992,147.679718 
	C224.730835,156.362976 229.241364,163.420197 234.475403,169.897934 
	C238.018143,174.282471 238.030411,178.586853 236.756226,183.821930 
	C234.647675,180.627472 232.803802,177.834030 231.047836,174.366501 
	C230.661987,173.948517 230.276123,173.530518 229.975189,172.586151 
M255.025406,128.090897 
	C255.025406,128.090897 255.079636,128.152161 255.777725,128.186981 
	C261.907990,121.194901 268.062408,114.223816 274.161957,107.205063 
	C280.696198,99.686111 283.849518,90.751358 285.298248,80.900848 
	C285.324036,80.661102 285.349823,80.421349 285.375610,80.181602 
	C285.263428,80.474373 285.151215,80.767136 284.367554,81.157440 
	C280.732269,84.307411 277.023376,87.376892 273.475616,90.622536 
	C263.025482,100.182770 256.981842,112.068222 254.327576,125.594757 
	C254.327576,121.254173 254.327576,116.913597 254.327576,112.573013 
	C253.542267,112.584358 252.756943,112.595703 251.971634,112.607048 
	C252.259186,118.120392 252.546738,123.633736 253.248505,129.693954 
	C253.861420,129.141754 254.474335,128.589554 255.025406,128.090897 
M270.888794,261.178253 
	C271.340820,259.116333 271.376740,256.832397 272.333313,255.039719 
	C274.202820,251.536194 276.628693,248.333527 278.748505,244.958740 
	C282.809021,238.494385 281.541229,231.930649 279.494080,224.697159 
	C270.013092,236.079559 263.514404,247.422592 269.196228,262.613464 
	C267.314392,262.373260 265.412354,262.236359 263.554382,261.873932 
	C257.366852,260.666870 251.195114,259.378845 244.230499,257.961761 
	C247.931564,268.413696 257.586639,271.189819 272.233246,267.160828 
	C271.765045,265.439728 271.296570,263.717712 270.888794,261.178253 
M257.795013,248.237640 
	C255.395889,243.564453 257.645630,240.609985 261.195496,237.642334 
	C270.963715,229.476135 273.263153,220.205246 268.166656,210.577972 
	C266.474518,212.896240 265.101410,215.439667 263.125427,217.364059 
	C256.429382,223.885269 254.129517,231.763687 254.905991,240.874069 
	C255.059280,242.672470 254.317490,244.547180 253.517624,245.871826 
	C243.946869,241.758881 234.376114,237.645920 224.089737,233.225449 
	C229.061752,247.903305 234.742416,251.853760 248.841309,251.235809 
	C251.665329,251.112030 254.488647,250.904266 257.296967,250.595810 
	C257.577850,250.564957 257.751801,249.560684 257.795013,248.237640 
M239.252197,210.877365 
	C235.877762,203.760834 231.922211,197.033524 225.228653,192.515030 
	C222.064560,190.379120 218.702744,188.042221 214.539810,189.925781 
	C217.699478,206.707901 231.970993,211.948303 243.963074,220.196365 
	C242.446960,216.749298 241.172867,213.852478 240.584213,210.431900 
	C241.795731,210.152435 243.885040,210.158539 244.083191,209.549438 
	C246.103394,203.339355 251.140503,199.954575 256.106781,196.710342 
	C262.393311,192.603638 263.966003,186.958710 263.008301,179.969681 
	C260.763672,181.308960 258.840576,183.100845 256.604187,183.677155 
	C247.778076,185.951614 243.273941,191.679047 242.244614,200.464081 
	C241.944305,203.026932 241.974594,205.633606 241.579803,208.177750 
	C241.425064,209.174942 240.519440,210.055588 239.252197,210.877365 
M247.219772,142.233994 
	C247.510757,142.852875 247.864914,144.029877 248.083038,144.005203 
	C250.532913,143.727844 252.948929,143.152863 255.398605,142.872345 
	C267.034576,141.539886 276.680725,136.140030 285.331940,127.933304 
	C279.903778,127.164139 274.193024,125.976692 269.294189,127.463806 
	C263.128571,129.335449 257.626740,133.393707 251.180573,136.829315 
	C247.231964,138.489594 249.122665,135.160263 249.056061,134.083160 
	C248.599060,126.693237 248.704819,119.247772 247.838318,111.913658 
	C247.469315,108.790443 245.198044,105.891975 243.791245,102.891373 
	C243.320923,103.027710 242.850586,103.164055 242.380264,103.300392 
	C241.970459,104.992294 241.371445,106.663338 241.182236,108.379562 
	C240.131607,117.909485 242.714584,126.716759 246.505524,135.330048 
	C247.390762,137.341400 247.423981,139.727737 247.219772,142.233994 
M250.104355,331.390167 
	C242.640320,323.100372 235.265289,314.728058 227.683380,306.547516 
	C221.865601,300.270355 218.175842,299.108246 210.999298,300.776123 
	C212.540695,301.096619 213.799454,301.300171 215.026794,301.623138 
	C222.015732,303.462097 227.052521,309.995819 227.053070,317.182434 
	C227.053650,324.842041 227.175369,332.504974 226.968307,340.158966 
	C226.915375,342.115448 225.820221,344.043793 225.227127,345.911865 
	C226.910629,345.911865 229.218414,345.911865 230.292664,345.911865 
	C229.541809,335.992676 230.116592,326.116943 229.888748,315.058594 
	C231.824722,317.105835 232.927719,318.235413 233.990387,319.401733 
	C243.072479,329.370026 252.002487,339.482239 261.278229,349.266754 
	C266.885529,355.181610 271.260040,356.230896 277.373627,354.302643 
	C266.047150,352.564545 259.982086,345.564941 259.982178,334.231384 
	C259.982208,327.404327 259.830231,320.571960 260.069824,313.753326 
	C260.147430,311.545258 261.251556,309.373260 261.848267,307.315399 
	C259.944000,307.315399 257.121765,307.315399 255.279449,307.315399 
	C259.207520,317.320892 256.125977,327.713226 256.202637,338.084778 
	C254.330231,336.028320 252.457825,333.971863 250.104355,331.390167 
M194.635406,308.174072 
	C195.053497,308.365845 195.514114,308.785339 195.883560,308.716400 
	C208.211838,306.414642 214.070694,315.328583 214.607040,325.169800 
	C215.196381,335.983002 208.128128,344.425659 197.958557,344.973175 
	C187.025116,345.561798 178.973801,338.471100 179.002731,327.270172 
	C179.017517,321.544800 180.739563,315.823822 181.890930,308.890594 
	C179.342499,313.143372 176.404327,316.540405 175.132217,320.475952 
	C172.290878,329.266266 175.617752,337.897614 182.848526,342.869690 
	C190.924652,348.423096 203.296356,348.252625 211.026443,342.481506 
	C218.884064,336.615234 221.385178,326.038513 217.055954,316.983826 
	C212.938354,308.371735 204.109100,304.783386 194.635406,308.174072 
M314.389679,344.656281 
	C300.132690,340.228271 296.412598,326.875183 304.765503,310.110596 
	C296.558075,314.495636 293.453247,325.879547 297.926483,335.186157 
	C302.801208,345.328125 316.571930,349.822998 328.177582,345.060303 
	C338.694153,340.744568 343.517212,329.512115 339.517700,318.650299 
	C335.982086,309.048279 326.311798,304.494354 316.138153,308.021423 
	C317.289978,308.391235 318.437714,308.448242 319.578308,308.382080 
	C327.411774,307.927704 332.842529,311.299652 335.105927,318.841400 
	C340.105804,335.501251 328.992096,347.023438 314.389679,344.656281 
M160.232590,309.071167 
	C155.060516,308.186310 149.888458,307.301453 143.430206,306.196533 
	C148.144012,310.636993 149.393753,338.846802 146.222412,344.867249 
	C152.906982,347.709900 159.554398,347.904205 165.823227,343.975159 
	C173.102844,339.412598 172.678314,329.183990 165.181885,325.067200 
	C163.973083,324.403351 162.643051,323.960266 161.337875,323.401825 
	C165.396164,317.161682 165.246490,314.047791 160.232590,309.071167 
M287.860626,309.322571 
	C287.001831,304.958344 283.326721,306.964111 281.039581,306.683807 
	C276.696228,306.151520 273.265259,308.209717 271.641266,312.504364 
	C270.039398,316.740448 271.077576,320.321564 274.639404,323.158630 
	C278.153534,325.957703 281.806427,328.606689 285.121857,331.625275 
	C289.617401,335.718353 290.115051,341.261963 286.723053,345.463989 
	C283.441101,349.529694 276.935272,350.264557 272.266968,347.093567 
	C271.045502,346.263824 269.831055,345.423737 268.613403,344.588409 
	C271.914185,350.362152 276.138733,352.141479 282.693542,350.961060 
	C287.494232,350.096527 290.862366,347.338684 292.333344,342.608917 
	C294.074585,337.010345 292.040039,332.405792 287.946503,328.719849 
	C284.366058,325.495880 280.358978,322.749725 276.714172,319.591919 
	C273.530487,316.833618 273.363556,313.159760 275.972687,310.378448 
	C278.521057,307.661896 282.992645,307.680328 285.784058,310.477142 
	C286.463867,311.158234 286.966400,312.016235 287.872253,313.220795 
	C287.872253,311.733521 287.872253,310.902985 287.860626,309.322571 
M248.494293,213.290680 
	C248.494293,218.745773 248.494293,224.200851 248.494293,229.486603 
	C251.063065,226.382919 253.167526,223.202087 255.883835,220.680267 
	C263.454102,213.652069 264.396240,205.017807 262.793335,194.546432 
	C257.727875,200.966675 250.364075,204.361221 248.494293,213.290680 
M230.994781,219.540405 
	C227.411743,217.573868 223.828705,215.607346 219.946320,213.476517 
	C220.722702,228.833755 232.602921,236.748962 249.637268,233.135895 
	C243.316513,228.508743 237.461456,224.222519 230.994781,219.540405 
M356.242523,338.321808 
	C356.242523,327.971954 356.242523,317.622131 356.242523,306.790619 
	C352.487793,307.121521 347.470398,307.563690 342.453003,308.005859 
	C342.462982,308.373108 342.472961,308.740356 342.482941,309.107605 
	C345.828613,309.107605 349.174255,309.107605 352.658600,309.107605 
	C352.658600,319.787689 352.771973,329.942871 352.560730,340.091309 
	C352.519623,342.065216 351.214935,344.012787 350.530029,345.872253 
	C352.914703,345.872253 356.062531,345.872253 358.261810,345.872253 
	C357.610260,343.738464 356.926422,341.498932 356.242523,338.321808 
M277.139343,369.447021 
	C274.594238,370.019775 271.367950,369.842407 269.687988,371.367889 
	C267.862457,373.025604 269.691925,382.377686 271.959564,384.467590 
	C271.959564,380.028625 271.959564,376.189392 271.959564,372.446075 
	C276.644897,371.053680 278.477356,372.377747 278.632446,376.690186 
	C278.720001,379.124115 277.246094,382.147308 281.318390,384.936432 
	C281.318390,381.398163 280.912781,378.762024 281.459015,376.340576 
	C281.831604,374.688934 283.534058,373.337250 284.641876,371.851440 
	C285.745605,373.339539 287.394897,374.686707 287.824188,376.348999 
	C288.454651,378.790344 288.213318,381.456818 288.343414,384.027374 
	C289.130402,384.010437 289.917419,383.993500 290.704407,383.976562 
	C290.704407,381.032898 290.862396,378.078796 290.669220,375.147858 
	C290.338379,370.128265 287.302765,368.224670 282.446472,369.562347 
	C281.033020,369.951691 279.453217,369.736908 277.139343,369.447021 
M279.196655,268.571075 
	C278.561005,271.836914 277.925385,275.102783 277.380035,277.904724 
	C286.422424,274.414520 291.302155,261.261078 285.306580,250.655243 
	C283.054169,257.066467 281.180817,262.398743 279.196655,268.571075 
M259.789642,369.134247 
	C255.305923,370.103058 253.394684,373.139618 253.598785,377.448883 
	C253.764008,380.937317 255.683304,383.490265 259.231812,384.116394 
	C261.974792,384.600403 264.987091,384.974915 266.949219,381.353210 
	C263.395050,380.531128 258.841095,384.037384 256.909515,377.871643 
	C260.749512,377.871643 264.145264,377.871643 267.909607,377.871643 
	C267.665161,372.489868 265.654541,369.482574 259.789642,369.134247 
M204.724487,374.757202 
	C206.214294,376.206970 207.704102,377.656708 209.193909,379.106445 
	C206.946198,379.951233 204.751862,381.046448 202.429581,381.541260 
	C201.159332,381.811920 199.672806,381.067535 198.283813,380.780884 
	C198.180069,381.565857 198.076324,382.350800 197.972580,383.135773 
	C201.157623,383.416412 204.447388,384.288452 207.487411,383.750122 
	C209.238129,383.440094 211.700455,380.928955 211.820419,379.263000 
	C211.958710,377.342163 210.159760,374.993744 208.644165,373.343323 
	C207.636505,372.246033 205.443283,372.324463 204.162659,371.366180 
	C202.895248,370.417816 202.107239,368.828827 201.108917,367.520813 
	C202.643997,366.796051 204.129059,365.650757 205.727737,365.460632 
	C207.447128,365.256073 209.273102,365.947601 211.052567,366.248138 
	C211.142029,365.760925 211.231491,365.273682 211.320969,364.786438 
	C208.663116,362.549988 205.216721,362.221710 202.121811,363.486908 
	C200.394745,364.192902 197.987534,367.467407 198.423203,368.401611 
	C199.527573,370.769684 202.063400,372.470215 204.724487,374.757202 
M226.792557,374.734192 
	C226.491821,373.108246 226.191071,371.482330 225.890335,369.856384 
	C225.329254,369.929901 224.768173,370.003418 224.207077,370.076935 
	C224.033508,373.595123 223.859940,377.113281 223.689743,380.562744 
	C217.282150,381.566376 216.972580,381.249908 216.811020,375.043457 
	C216.763962,373.235321 216.251450,371.439301 215.952271,369.637726 
	C215.484283,369.751007 215.016281,369.864319 214.548294,369.977631 
	C212.954086,383.737610 213.988327,383.062256 223.895660,384.425751 
	C222.287537,389.074188 218.252777,386.230743 215.420059,387.863892 
	C217.570740,389.018829 220.055161,390.193756 222.047058,389.629639 
	C223.841476,389.121460 225.925873,386.921844 226.400208,385.085419 
	C227.168762,382.109894 226.724472,378.821075 226.792557,374.734192 
M230.064041,370.594849 
	C225.639664,378.958832 236.249435,376.113220 237.706802,381.143341 
	C234.558258,381.143341 231.742157,381.143341 228.926056,381.143341 
	C228.853668,381.836945 228.781281,382.530579 228.708893,383.224182 
	C231.124176,383.546844 233.647079,384.436798 235.919357,384.005707 
	C237.617966,383.683411 239.740524,381.893158 240.242859,380.304077 
	C240.563492,379.289795 238.503967,377.150024 237.090424,376.062134 
	C235.580582,374.900177 233.575485,374.381744 231.786591,373.582428 
	C231.892319,373.145996 231.998032,372.709564 232.103760,372.273163 
	C234.594803,372.052307 237.085846,371.831451 239.576889,371.610626 
	C239.525269,370.931366 239.473633,370.252136 239.422012,369.572906 
	C236.508682,369.747162 233.595352,369.921387 230.064041,370.594849 
M303.077606,370.200531 
	C301.633911,369.847351 299.977936,368.873016 298.793243,369.277832 
	C296.704132,369.991699 294.902496,371.546906 292.980530,372.749847 
	C294.349396,374.357422 295.544922,376.172791 297.142761,377.505951 
	C298.389252,378.546021 300.135681,378.986847 301.659943,379.693970 
	C301.564850,380.175964 301.469757,380.657959 301.374634,381.139954 
	C298.556458,381.139954 295.738281,381.139954 292.920105,381.139954 
	C292.849762,381.835846 292.779419,382.531769 292.709045,383.227661 
	C295.128510,383.548584 297.656647,384.438141 299.931671,384.003357 
	C301.629517,383.678864 303.749725,381.877228 304.246277,380.285553 
	C304.562775,379.270996 302.484314,377.143799 301.066193,376.053192 
	C299.558289,374.893616 297.562225,374.368866 294.468384,372.977264 
	C298.580200,372.005096 301.035919,371.424469 303.077606,370.200531 
M246.967682,367.627502 
	C246.617752,366.797119 246.267807,365.966705 245.917862,365.136292 
	C245.305557,365.684418 244.539459,366.134216 244.113068,366.801178 
	C243.231567,368.180115 242.530975,369.674652 241.755966,371.121643 
	C243.179153,373.594727 243.441971,376.354767 244.142212,378.998962 
	C244.569946,380.614166 245.319550,382.811615 246.554672,383.381134 
	C248.199097,384.139435 250.456543,383.568359 252.450638,383.568359 
	C252.678040,383.117920 252.905457,382.667450 253.132858,382.217010 
	C245.705338,381.565033 246.378754,377.091492 247.390381,372.393097 
	C249.220764,372.126068 250.838501,371.890015 252.456238,371.653992 
	C252.452011,371.314362 252.447769,370.974701 252.443527,370.635040 
	C250.650772,369.907654 248.858002,369.180298 246.967682,367.627502 
M250.238037,106.038498 
	C254.517761,102.743523 253.987198,98.614418 252.808212,94.372879 
	C252.242493,94.287415 251.676788,94.201950 251.111069,94.116486 
	C250.763062,97.852562 250.415070,101.588646 250.238037,106.038498 
M191.464310,309.310730 
	C191.537476,309.259125 191.610641,309.207550 191.464310,309.310730 
z"/>
<path fill="#04EC68" opacity="1.000000" stroke="none" 
	d="
M242.114426,156.030975 
	C242.974472,155.645691 244.279297,155.494400 244.624527,154.838272 
	C247.516861,149.340714 252.136002,147.007233 258.116913,145.769623 
	C264.700134,144.407394 271.035095,141.845383 277.301666,139.861954 
	C275.695007,149.902695 269.837372,156.074997 259.668701,158.106796 
	C256.570160,158.725876 253.468155,159.330521 250.380463,160.000427 
	C242.645050,161.678711 238.209808,168.768570 240.023331,179.103867 
	C244.451645,164.205307 256.366608,165.531570 267.070465,163.450302 
	C265.140289,169.309494 261.564636,173.412277 256.335083,176.037582 
	C252.622452,177.901398 248.746277,179.436386 244.983948,181.205078 
	C241.283966,182.944443 239.567764,185.791992 239.842712,190.015228 
	C240.092545,193.852753 239.895584,197.719360 239.552078,201.685593 
	C238.661209,194.763290 232.669693,192.454865 228.185852,189.092926 
	C221.104736,183.783554 215.873108,177.514008 214.300842,168.218033 
	C220.957962,167.574112 225.000839,171.971268 229.721466,175.277969 
	C230.015839,175.012711 229.981476,174.964279 229.702179,175.229843 
	C229.805939,175.854874 230.188980,176.214355 230.572021,176.573837 
	C230.729843,176.036774 230.887680,175.499725 231.023804,174.981796 
	C231.002090,175.000916 230.959930,175.040588 230.959930,175.040588 
	C232.803802,177.834030 234.647675,180.627472 236.756226,183.821930 
	C238.030411,178.586853 238.018143,174.282471 234.475403,169.897934 
	C229.241364,163.420197 224.730835,156.362976 223.931992,147.679718 
	C223.832123,146.594162 223.918365,145.491501 223.918365,143.840836 
	C233.388031,148.680649 235.487411,157.518372 238.199997,167.254913 
	C238.988937,164.189941 239.431885,162.469162 240.204590,160.581665 
	C240.883087,160.986542 241.231842,161.558151 241.580582,162.129745 
	C241.962418,161.926941 242.344254,161.724136 242.726089,161.521347 
	C242.095596,160.243500 241.465103,158.965637 240.834625,157.687790 
	C240.865341,157.305695 240.896057,156.923615 241.276291,156.278931 
	C241.625809,156.016342 242.114426,156.030975 242.114426,156.030975 
M266.234222,148.144058 
	C261.383209,149.611786 256.532166,151.079514 251.681152,152.547241 
	C251.787064,152.951843 251.892975,153.356445 251.998886,153.761032 
	C256.251068,152.726364 260.534851,151.799591 264.730377,150.571442 
	C265.634247,150.306854 266.219940,148.955139 266.234222,148.144058 
z"/>
<path fill="#E8E8E7" opacity="1.000000" stroke="none" 
	d="
M250.344879,331.652771 
	C252.457825,333.971863 254.330231,336.028320 256.202637,338.084778 
	C256.125977,327.713226 259.207520,317.320892 255.279449,307.315399 
	C257.121765,307.315399 259.944000,307.315399 261.848267,307.315399 
	C261.251556,309.373260 260.147430,311.545258 260.069824,313.753326 
	C259.830231,320.571960 259.982208,327.404327 259.982178,334.231384 
	C259.982086,345.564941 266.047150,352.564545 277.373627,354.302643 
	C271.260040,356.230896 266.885529,355.181610 261.278229,349.266754 
	C252.002487,339.482239 243.072479,329.370026 233.990387,319.401733 
	C232.927719,318.235413 231.824722,317.105835 229.888748,315.058594 
	C230.116592,326.116943 229.541809,335.992676 230.292664,345.911865 
	C229.218414,345.911865 226.910629,345.911865 225.227127,345.911865 
	C225.820221,344.043793 226.915375,342.115448 226.968307,340.158966 
	C227.175369,332.504974 227.053650,324.842041 227.053070,317.182434 
	C227.052521,309.995819 222.015732,303.462097 215.026794,301.623138 
	C213.799454,301.300171 212.540695,301.096619 210.999298,300.776123 
	C218.175842,299.108246 221.865601,300.270355 227.683380,306.547516 
	C235.265289,314.728058 242.640320,323.100372 250.344879,331.652771 
z"/>
<path fill="#04EF6A" opacity="1.000000" stroke="none" 
	d="
M255.043213,126.071289 
	C256.981842,112.068222 263.025482,100.182770 273.475616,90.622536 
	C277.023376,87.376892 280.732269,84.307411 284.687225,81.088638 
	C285.006897,81.019836 284.966339,80.988335 284.966339,80.988335 
	C283.849518,90.751358 280.696198,99.686111 274.161957,107.205063 
	C268.062408,114.223816 261.907990,121.194901 255.410797,127.822601 
	C255.043640,126.995918 255.043427,126.533600 255.043213,126.071289 
z"/>
<path fill="#EAEAE9" opacity="1.000000" stroke="none" 
	d="
M194.322266,307.895660 
	C204.109100,304.783386 212.938354,308.371735 217.055954,316.983826 
	C221.385178,326.038513 218.884064,336.615234 211.026443,342.481506 
	C203.296356,348.252625 190.924652,348.423096 182.848526,342.869690 
	C175.617752,337.897614 172.290878,329.266266 175.132217,320.475952 
	C176.404327,316.540405 179.342499,313.143372 181.890930,308.890594 
	C180.739563,315.823822 179.017517,321.544800 179.002731,327.270172 
	C178.973801,338.471100 187.025116,345.561798 197.958557,344.973175 
	C208.128128,344.425659 215.196381,335.983002 214.607040,325.169800 
	C214.070694,315.328583 208.211838,306.414642 195.883560,308.716400 
	C195.514114,308.785339 195.053497,308.365845 194.322266,307.895660 
z"/>
<path fill="#E9E9E9" opacity="1.000000" stroke="none" 
	d="
M314.793274,344.734955 
	C328.992096,347.023438 340.105804,335.501251 335.105927,318.841400 
	C332.842529,311.299652 327.411774,307.927704 319.578308,308.382080 
	C318.437714,308.448242 317.289978,308.391235 316.138153,308.021423 
	C326.311798,304.494354 335.982086,309.048279 339.517700,318.650299 
	C343.517212,329.512115 338.694153,340.744568 328.177582,345.060303 
	C316.571930,349.822998 302.801208,345.328125 297.926483,335.186157 
	C293.453247,325.879547 296.558075,314.495636 304.765503,310.110596 
	C296.412598,326.875183 300.132690,340.228271 314.793274,344.734955 
z"/>
<path fill="#F0F0EF" opacity="1.000000" stroke="none" 
	d="
M160.548370,309.282959 
	C165.246490,314.047791 165.396164,317.161682 161.337875,323.401825 
	C162.643051,323.960266 163.973083,324.403351 165.181885,325.067200 
	C172.678314,329.183990 173.102844,339.412598 165.823227,343.975159 
	C159.554398,347.904205 152.906982,347.709900 146.222412,344.867249 
	C149.393753,338.846802 148.144012,310.636993 143.430206,306.196533 
	C149.888458,307.301453 155.060516,308.186310 160.548370,309.282959 
M160.019409,316.491089 
	C159.078140,310.544128 157.393677,309.174927 151.616852,309.686707 
	C151.616852,321.106720 151.616852,332.527527 151.616852,343.881653 
	C158.881760,345.735565 164.626114,343.459534 166.008911,337.824554 
	C166.600861,335.412231 166.843369,331.761292 165.487823,330.269470 
	C162.852203,327.368774 158.976273,325.595032 156.273514,323.793915 
	C157.285492,322.030334 158.641693,319.666870 160.019409,316.491089 
z"/>
<path fill="#04EE69" opacity="1.000000" stroke="none" 
	d="
M251.838486,136.508484 
	C257.626740,133.393707 263.128571,129.335449 269.294189,127.463806 
	C274.193024,125.976692 279.903778,127.164139 285.331940,127.933304 
	C276.680725,136.140030 267.034576,141.539886 255.398605,142.872345 
	C252.948929,143.152863 250.532913,143.727844 248.083038,144.005203 
	C247.864914,144.029877 247.510757,142.852875 247.908676,142.061188 
	C249.677887,140.095093 250.758194,138.301788 251.838486,136.508484 
z"/>
<path fill="#04ED69" opacity="1.000000" stroke="none" 
	d="
M239.898773,210.955673 
	C241.172867,213.852478 242.446960,216.749298 243.963074,220.196365 
	C231.970993,211.948303 217.699478,206.707901 214.539810,189.925781 
	C218.702744,188.042221 222.064560,190.379120 225.228653,192.515030 
	C231.922211,197.033524 235.877762,203.760834 239.590485,210.927124 
	C239.928787,210.976868 239.898773,210.955673 239.898773,210.955673 
z"/>
<path fill="#EBEBEB" opacity="1.000000" stroke="none" 
	d="
M287.866455,309.697510 
	C287.872253,310.902985 287.872253,311.733521 287.872253,313.220795 
	C286.966400,312.016235 286.463867,311.158234 285.784058,310.477142 
	C282.992645,307.680328 278.521057,307.661896 275.972687,310.378448 
	C273.363556,313.159760 273.530487,316.833618 276.714172,319.591919 
	C280.358978,322.749725 284.366058,325.495880 287.946503,328.719849 
	C292.040039,332.405792 294.074585,337.010345 292.333344,342.608917 
	C290.862366,347.338684 287.494232,350.096527 282.693542,350.961060 
	C276.138733,352.141479 271.914185,350.362152 268.613403,344.588409 
	C269.831055,345.423737 271.045502,346.263824 272.266968,347.093567 
	C276.935272,350.264557 283.441101,349.529694 286.723053,345.463989 
	C290.115051,341.261963 289.617401,335.718353 285.121857,331.625275 
	C281.806427,328.606689 278.153534,325.957703 274.639404,323.158630 
	C271.077576,320.321564 270.039398,316.740448 271.641266,312.504364 
	C273.265259,308.209717 276.696228,306.151520 281.039581,306.683807 
	C283.326721,306.964111 287.001831,304.958344 287.866455,309.697510 
z"/>
<path fill="#04EE69" opacity="1.000000" stroke="none" 
	d="
M257.975372,249.008179 
	C257.751801,249.560684 257.577850,250.564957 257.296967,250.595810 
	C254.488647,250.904266 251.665329,251.112030 248.841309,251.235809 
	C234.742416,251.853760 229.061752,247.903305 224.089737,233.225449 
	C234.376114,237.645920 243.946869,241.758881 253.949036,246.364807 
	C255.578766,247.574570 256.777069,248.291382 257.975372,249.008179 
z"/>
<path fill="#04F06A" opacity="1.000000" stroke="none" 
	d="
M239.942291,210.983093 
	C240.519440,210.055588 241.425064,209.174942 241.579803,208.177750 
	C241.974594,205.633606 241.944305,203.026932 242.244614,200.464081 
	C243.273941,191.679047 247.778076,185.951614 256.604187,183.677155 
	C258.840576,183.100845 260.763672,181.308960 263.008301,179.969681 
	C263.966003,186.958710 262.393311,192.603638 256.106781,196.710342 
	C251.140503,199.954575 246.103394,203.339355 244.083191,209.549438 
	C243.885040,210.158539 241.795731,210.152435 240.241486,210.693787 
	C239.898773,210.955673 239.928787,210.976868 239.942291,210.983093 
z"/>
<path fill="#04EB68" opacity="1.000000" stroke="none" 
	d="
M257.885193,248.622910 
	C256.777069,248.291382 255.578766,247.574570 254.184479,246.622223 
	C254.317490,244.547180 255.059280,242.672470 254.905991,240.874069 
	C254.129517,231.763687 256.429382,223.885269 263.125427,217.364059 
	C265.101410,215.439667 266.474518,212.896240 268.166656,210.577972 
	C273.263153,220.205246 270.963715,229.476135 261.195496,237.642334 
	C257.645630,240.609985 255.395889,243.564453 257.885193,248.622910 
z"/>
<path fill="#04EB68" opacity="1.000000" stroke="none" 
	d="
M248.608490,212.884232 
	C250.364075,204.361221 257.727875,200.966675 262.793335,194.546432 
	C264.396240,205.017807 263.454102,213.652069 255.883835,220.680267 
	C253.167526,223.202087 251.063065,226.382919 248.494293,229.486603 
	C248.494293,224.200851 248.494293,218.745773 248.608490,212.884232 
z"/>
<path fill="#04EB68" opacity="1.000000" stroke="none" 
	d="
M269.774719,261.981323 
	C263.514404,247.422592 270.013092,236.079559 279.494080,224.697159 
	C281.541229,231.930649 282.809021,238.494385 278.748505,244.958740 
	C276.628693,248.333527 274.202820,251.536194 272.333313,255.039719 
	C271.376740,256.832397 271.340820,259.116333 270.682648,261.585510 
	C270.242615,261.987030 270.008698,261.983215 269.774719,261.981323 
z"/>
<path fill="#04EE69" opacity="1.000000" stroke="none" 
	d="
M231.300598,219.738342 
	C237.461456,224.222519 243.316513,228.508743 249.637268,233.135895 
	C232.602921,236.748962 220.722702,228.833755 219.946320,213.476517 
	C223.828705,215.607346 227.411743,217.573868 231.300598,219.738342 
z"/>
<path fill="#05E866" opacity="1.000000" stroke="none" 
	d="
M242.397446,155.820084 
	C242.114426,156.030975 241.625809,156.016342 241.381500,156.009674 
	C233.460587,148.150101 230.264893,138.885849 232.268829,127.960823 
	C238.655624,129.695709 241.379227,134.346634 243.142395,146.605728 
	C243.933044,146.235596 244.677368,145.887146 245.977982,145.278290 
	C244.762680,149.085770 243.721573,152.347473 242.397446,155.820084 
z"/>
<path fill="#05E766" opacity="1.000000" stroke="none" 
	d="
M251.509521,136.668900 
	C250.758194,138.301788 249.677887,140.095093 248.223389,141.914963 
	C247.423981,139.727737 247.390762,137.341400 246.505524,135.330048 
	C242.714584,126.716759 240.131607,117.909485 241.182236,108.379562 
	C241.371445,106.663338 241.970459,104.992294 242.380264,103.300392 
	C242.850586,103.164055 243.320923,103.027710 243.791245,102.891373 
	C245.198044,105.891975 247.469315,108.790443 247.838318,111.913658 
	C248.704819,119.247772 248.599060,126.693237 249.056061,134.083160 
	C249.122665,135.160263 247.231964,138.489594 251.509521,136.668900 
z"/>
<path fill="#FAFAFA" opacity="1.000000" stroke="none" 
	d="
M356.242554,338.790588 
	C356.926422,341.498932 357.610260,343.738464 358.261810,345.872253 
	C356.062531,345.872253 352.914703,345.872253 350.530029,345.872253 
	C351.214935,344.012787 352.519623,342.065216 352.560730,340.091309 
	C352.771973,329.942871 352.658600,319.787689 352.658600,309.107605 
	C349.174255,309.107605 345.828613,309.107605 342.482941,309.107605 
	C342.472961,308.740356 342.462982,308.373108 342.453003,308.005859 
	C347.470398,307.563690 352.487793,307.121521 356.242523,306.790619 
	C356.242523,317.622131 356.242523,327.971954 356.242554,338.790588 
z"/>
<path fill="#05E766" opacity="1.000000" stroke="none" 
	d="
M269.485474,262.297394 
	C270.008698,261.983215 270.242615,261.987030 270.652283,261.994202 
	C271.296570,263.717712 271.765045,265.439728 272.233246,267.160828 
	C257.586639,271.189819 247.931564,268.413696 244.230499,257.961761 
	C251.195114,259.378845 257.366852,260.666870 263.554382,261.873932 
	C265.412354,262.236359 267.314392,262.373260 269.485474,262.297394 
z"/>
<path fill="#05E666" opacity="1.000000" stroke="none" 
	d="
M277.544495,369.623047 
	C279.453217,369.736908 281.033020,369.951691 282.446472,369.562347 
	C287.302765,368.224670 290.338379,370.128265 290.669220,375.147858 
	C290.862396,378.078796 290.704407,381.032898 290.704407,383.976562 
	C289.917419,383.993500 289.130402,384.010437 288.343414,384.027374 
	C288.213318,381.456818 288.454651,378.790344 287.824188,376.348999 
	C287.394897,374.686707 285.745605,373.339539 284.641876,371.851440 
	C283.534058,373.337250 281.831604,374.688934 281.459015,376.340576 
	C280.912781,378.762024 281.318390,381.398163 281.318390,384.936432 
	C277.246094,382.147308 278.720001,379.124115 278.632446,376.690186 
	C278.477356,372.377747 276.644897,371.053680 271.959564,372.446075 
	C271.959564,376.189392 271.959564,380.028625 271.959564,384.467590 
	C269.691925,382.377686 267.862457,373.025604 269.687988,371.367889 
	C271.367950,369.842407 274.594238,370.019775 277.544495,369.623047 
z"/>
<path fill="#05E063" opacity="1.000000" stroke="none" 
	d="
M279.252045,268.151062 
	C281.180817,262.398743 283.054169,257.066467 285.306580,250.655243 
	C291.302155,261.261078 286.422424,274.414520 277.380035,277.904724 
	C277.925385,275.102783 278.561005,271.836914 279.252045,268.151062 
z"/>
<path fill="#06D45E" opacity="1.000000" stroke="none" 
	d="
M260.176819,369.108032 
	C265.654541,369.482574 267.665161,372.489868 267.909607,377.871643 
	C264.145264,377.871643 260.749512,377.871643 256.909515,377.871643 
	C258.841095,384.037384 263.395050,380.531128 266.949219,381.353210 
	C264.987091,384.974915 261.974792,384.600403 259.231812,384.116394 
	C255.683304,383.490265 253.764008,380.937317 253.598785,377.448883 
	C253.394684,373.139618 255.305923,370.103058 260.176819,369.108032 
z"/>
<path fill="#05E666" opacity="1.000000" stroke="none" 
	d="
M204.375229,374.597626 
	C202.063400,372.470215 199.527573,370.769684 198.423203,368.401611 
	C197.987534,367.467407 200.394745,364.192902 202.121811,363.486908 
	C205.216721,362.221710 208.663116,362.549988 211.320969,364.786438 
	C211.231491,365.273682 211.142029,365.760925 211.052567,366.248138 
	C209.273102,365.947601 207.447128,365.256073 205.727737,365.460632 
	C204.129059,365.650757 202.643997,366.796051 201.108932,367.520813 
	C202.107239,368.828827 202.895248,370.417816 204.162659,371.366180 
	C205.443283,372.324463 207.636505,372.246033 208.644165,373.343323 
	C210.159760,374.993744 211.958710,377.342163 211.820419,379.263000 
	C211.700455,380.928955 209.238129,383.440094 207.487411,383.750122 
	C204.447388,384.288452 201.157623,383.416412 197.972580,383.135773 
	C198.076324,382.350800 198.180069,381.565857 198.283813,380.780884 
	C199.672806,381.067535 201.159332,381.811920 202.429581,381.541260 
	C204.751862,381.046448 206.946198,379.951233 209.193909,379.106445 
	C207.704102,377.656708 206.214294,376.206970 204.375229,374.597626 
z"/>
<path fill="#06D960" opacity="1.000000" stroke="none" 
	d="
M226.792404,375.199371 
	C226.724472,378.821075 227.168762,382.109894 226.400208,385.085419 
	C225.925873,386.921844 223.841476,389.121460 222.047058,389.629639 
	C220.055161,390.193756 217.570740,389.018829 215.420059,387.863892 
	C218.252777,386.230743 222.287537,389.074188 223.895660,384.425751 
	C213.988327,383.062256 212.954086,383.737610 214.548294,369.977631 
	C215.016281,369.864319 215.484283,369.751007 215.952271,369.637726 
	C216.251450,371.439301 216.763962,373.235321 216.811020,375.043457 
	C216.972580,381.249908 217.282150,381.566376 223.689743,380.562744 
	C223.859940,377.113281 224.033508,373.595123 224.207077,370.076935 
	C224.768173,370.003418 225.329254,369.929901 225.890335,369.856384 
	C226.191071,371.482330 226.491821,373.108246 226.792404,375.199371 
z"/>
<path fill="#05DE62" opacity="1.000000" stroke="none" 
	d="
M230.373032,370.345215 
	C233.595352,369.921387 236.508682,369.747162 239.422012,369.572906 
	C239.473633,370.252136 239.525269,370.931366 239.576889,371.610626 
	C237.085846,371.831451 234.594803,372.052307 232.103760,372.273163 
	C231.998032,372.709564 231.892319,373.145996 231.786591,373.582428 
	C233.575485,374.381744 235.580582,374.900177 237.090424,376.062134 
	C238.503967,377.150024 240.563492,379.289795 240.242859,380.304077 
	C239.740524,381.893158 237.617966,383.683411 235.919357,384.005707 
	C233.647079,384.436798 231.124176,383.546844 228.708893,383.224182 
	C228.781281,382.530579 228.853668,381.836945 228.926056,381.143341 
	C231.742157,381.143341 234.558258,381.143341 237.706802,381.143341 
	C236.249435,376.113220 225.639664,378.958832 230.373032,370.345215 
z"/>
<path fill="#05DE62" opacity="1.000000" stroke="none" 
	d="
M303.284607,370.522217 
	C301.035919,371.424469 298.580200,372.005096 294.468384,372.977264 
	C297.562225,374.368866 299.558289,374.893616 301.066193,376.053192 
	C302.484314,377.143799 304.562775,379.270996 304.246277,380.285553 
	C303.749725,381.877228 301.629517,383.678864 299.931671,384.003357 
	C297.656647,384.438141 295.128510,383.548584 292.709045,383.227661 
	C292.779419,382.531769 292.849762,381.835846 292.920105,381.139954 
	C295.738281,381.139954 298.556458,381.139954 301.374634,381.139954 
	C301.469757,380.657959 301.564850,380.175964 301.659943,379.693970 
	C300.135681,378.986847 298.389252,378.546021 297.142761,377.505951 
	C295.544922,376.172791 294.349396,374.357422 292.980530,372.749847 
	C294.902496,371.546906 296.704132,369.991699 298.793243,369.277832 
	C299.977936,368.873016 301.633911,369.847351 303.284607,370.522217 
z"/>
<path fill="#05E465" opacity="1.000000" stroke="none" 
	d="
M247.016464,368.040222 
	C248.858002,369.180298 250.650772,369.907654 252.443527,370.635040 
	C252.447769,370.974701 252.452011,371.314362 252.456238,371.653992 
	C250.838501,371.890015 249.220764,372.126068 247.390381,372.393097 
	C246.378754,377.091492 245.705338,381.565033 253.132858,382.217010 
	C252.905457,382.667450 252.678040,383.117920 252.450638,383.568359 
	C250.456543,383.568359 248.199097,384.139435 246.554672,383.381134 
	C245.319550,382.811615 244.569946,380.614166 244.142212,378.998962 
	C243.441971,376.354767 243.179153,373.594727 241.755966,371.121643 
	C242.530975,369.674652 243.231567,368.180115 244.113068,366.801178 
	C244.539459,366.134216 245.305557,365.684418 245.917877,365.136292 
	C246.267807,365.966705 246.617752,366.797119 247.016464,368.040222 
z"/>
<path fill="#07D05D" opacity="1.000000" stroke="none" 
	d="
M250.152557,105.681610 
	C250.415070,101.588646 250.763062,97.852562 251.111069,94.116486 
	C251.676788,94.201950 252.242493,94.287415 252.808212,94.372879 
	C253.987198,98.614418 254.517761,102.743523 250.152557,105.681610 
z"/>
<path fill="#0B9F48" opacity="1.000000" stroke="none" 
	d="
M254.685394,125.833023 
	C255.043427,126.533600 255.043640,126.995918 255.061737,127.805191 
	C255.079636,128.152161 255.025406,128.090897 254.724609,128.090820 
	C253.893967,128.442841 253.364120,128.794952 252.834290,129.147079 
	C252.546738,123.633736 252.259186,118.120392 251.971634,112.607048 
	C252.756943,112.595703 253.542267,112.584358 254.327576,112.573013 
	C254.327576,116.913597 254.327576,121.254173 254.685394,125.833023 
z"/>
<path fill="#05E866" opacity="1.000000" stroke="none" 
	d="
M240.619354,157.926056 
	C241.465103,158.965637 242.095596,160.243500 242.726089,161.521347 
	C242.344254,161.724136 241.962418,161.926941 241.580582,162.129745 
	C241.231842,161.558151 240.883087,160.986542 240.333206,160.226776 
	C240.222733,159.413834 240.313400,158.789062 240.619354,157.926056 
z"/>
<path fill="#04EF6A" opacity="1.000000" stroke="none" 
	d="
M253.041382,129.420517 
	C253.364120,128.794952 253.893967,128.442841 254.755539,128.064026 
	C254.474335,128.589554 253.861420,129.141754 253.041382,129.420517 
z"/>
<path fill="#04EC68" opacity="1.000000" stroke="none" 
	d="
M229.890274,173.112534 
	C230.276123,173.530518 230.661987,173.948517 231.003876,174.703552 
	C230.959930,175.040588 231.002090,175.000916 230.757736,174.948853 
	C230.336075,174.919296 230.158768,174.941788 229.981476,174.964279 
	C229.981476,174.964279 230.015839,175.012711 230.034531,175.035751 
	C230.043335,174.612549 230.033447,174.166321 229.974182,173.398071 
	C229.924835,173.076065 229.890274,173.112534 229.890274,173.112534 
z"/>
<path fill="#04EC68" opacity="1.000000" stroke="none" 
	d="
M229.945709,173.062134 
	C229.740997,172.703735 229.515396,172.359268 229.289795,172.014801 
	C229.455078,171.925522 229.620331,171.836227 229.785583,171.746933 
	C229.848785,172.026672 229.911987,172.306412 229.932739,172.849335 
	C229.890274,173.112534 229.924835,173.076065 229.945709,173.062134 
z"/>
<path fill="#EAEAE9" opacity="1.000000" stroke="none" 
	d="
M191.574051,309.233337 
	C191.610641,309.207550 191.537476,309.259125 191.574051,309.233337 
z"/>
<path fill="#04EF6A" opacity="1.000000" stroke="none" 
	d="
M285.022949,81.039871 
	C285.151215,80.767136 285.263428,80.474373 285.375610,80.181602 
	C285.349823,80.421349 285.324036,80.661102 285.132294,80.944595 
	C284.966339,80.988335 285.006897,81.019836 285.022949,81.039871 
z"/>
<path fill="#143C1F" opacity="1.000000" stroke="none" 
	d="
M266.593201,148.124130 
	C266.219940,148.955139 265.634247,150.306854 264.730377,150.571442 
	C260.534851,151.799591 256.251068,152.726364 251.998886,153.761032 
	C251.892975,153.356445 251.787064,152.951843 251.681152,152.547241 
	C256.532166,151.079514 261.383209,149.611786 266.593201,148.124130 
z"/>
<path fill="#171810" opacity="1.000000" stroke="none" 
	d="
M229.702179,175.229843 
	C230.158768,174.941788 230.336075,174.919296 230.779449,174.929733 
	C230.887680,175.499725 230.729843,176.036774 230.572021,176.573837 
	C230.188980,176.214355 229.805939,175.854874 229.702179,175.229843 
z"/>
<path fill="#26261F" opacity="1.000000" stroke="none" 
	d="
M160.008652,316.897247 
	C158.641693,319.666870 157.285492,322.030334 156.273514,323.793915 
	C158.976273,325.595032 162.852203,327.368774 165.487823,330.269470 
	C166.843369,331.761292 166.600861,335.412231 166.008911,337.824554 
	C164.626114,343.459534 158.881760,345.735565 151.616852,343.881653 
	C151.616852,332.527527 151.616852,321.106720 151.616852,309.686707 
	C157.393677,309.174927 159.078140,310.544128 160.008652,316.897247 
z"/>
</svg>