<svg xmlns="http://www.w3.org/2000/svg" xmlns:xlink="http://www.w3.org/1999/xlink" width="283" zoomAndPan="magnify" viewBox="0 0 212.25 84.749997" height="113" preserveAspectRatio="xMidYMid meet" version="1.0"><defs><g/><clipPath id="2d1a3bb6b6"><path d="M 0 0.0234375 L 211.503906 0.0234375 L 211.503906 84.476562 L 0 84.476562 Z M 0 0.0234375 " clip-rule="nonzero"/></clipPath><clipPath id="8bf3829c6e"><path d="M 0 0.0234375 L 210.78125 0.0234375 L 210.78125 84.1875 L 0 84.1875 Z M 0 0.0234375 " clip-rule="nonzero"/></clipPath><clipPath id="454a08481c"><path d="M 0.832031 7 L 20 7 L 20 32 L 0.832031 32 Z M 0.832031 7 " clip-rule="nonzero"/></clipPath><clipPath id="da03561a21"><rect x="0" width="144" y="0" height="45"/></clipPath><clipPath id="5aba4a5b7c"><path d="M 2.738281 1.96875 L 32.449219 1.96875 L 32.449219 82.410156 L 2.738281 82.410156 Z M 2.738281 1.96875 " clip-rule="nonzero"/></clipPath><clipPath id="17c42c96ab"><rect x="0" width="106" y="0" height="38"/></clipPath><clipPath id="883d1cfe91"><rect x="0" width="212" y="0" height="85"/></clipPath></defs><g clip-path="url(#2d1a3bb6b6)"><path fill="#ffffff" d="M 0 0.0234375 L 211.503906 0.0234375 L 211.503906 84.476562 L 0 84.476562 Z M 0 0.0234375 " fill-opacity="1" fill-rule="nonzero"/><g transform="matrix(1, 0, 0, 1, 0, -0.000000000000012552)"><g clip-path="url(#883d1cfe91)"><g clip-path="url(#8bf3829c6e)"><path fill="#0c0912" d="M 0 0.0234375 L 210.78125 0.0234375 L 210.78125 84.1875 L 0 84.1875 Z M 0 0.0234375 " fill-opacity="1" fill-rule="nonzero"/></g><g transform="matrix(1, 0, 0, 1, 47, 5)"><g clip-path="url(#da03561a21)"><g clip-path="url(#454a08481c)"><g fill="#ffffff" fill-opacity="1"><g transform="translate(0.861437, 30.775993)"><g><path d="M 13.25 -14.59375 C 12.851562 -14.164062 12.394531 -13.851562 11.875 -13.65625 C 14.0625 -13.34375 15.722656 -12.566406 16.859375 -11.328125 C 18.003906 -10.085938 18.578125 -8.578125 18.578125 -6.796875 C 18.578125 -4.628906 17.707031 -2.875 15.96875 -1.53125 C 14.226562 -0.195312 11.9375 0.46875 9.09375 0.46875 C 6.257812 0.46875 4.039062 -0.226562 2.4375 -1.625 C 0.832031 -3.019531 0.03125 -4.988281 0.03125 -7.53125 C 0.03125 -7.664062 0.03125 -7.800781 0.03125 -7.9375 L 0.40625 -8 C 0.84375 -4.675781 2.222656 -2.523438 4.546875 -1.546875 L 4.546875 -21.015625 C 4.503906 -21.617188 4.273438 -22.113281 3.859375 -22.5 C 3.453125 -22.894531 2.957031 -23.09375 2.375 -23.09375 L 1.96875 -23.09375 L 1.96875 -23.421875 L 7.59375 -23.421875 C 9.6875 -23.421875 11.363281 -22.941406 12.625 -21.984375 C 13.882812 -21.023438 14.515625 -19.769531 14.515625 -18.21875 C 14.515625 -16.664062 14.09375 -15.457031 13.25 -14.59375 Z M 6.71875 -22.359375 L 6.71875 -0.9375 C 7.457031 -0.820312 8.304688 -0.765625 9.265625 -0.765625 C 11.410156 -0.765625 13.078125 -1.335938 14.265625 -2.484375 C 15.460938 -3.640625 16.0625 -5.132812 16.0625 -6.96875 C 16.0625 -7.945312 15.875 -8.8125 15.5 -9.5625 C 15.132812 -10.320312 14.675781 -10.914062 14.125 -11.34375 C 12.644531 -12.476562 10.566406 -13.046875 7.890625 -13.046875 C 7.867188 -13.046875 7.859375 -13.046875 7.859375 -13.046875 L 7.828125 -13.359375 C 7.847656 -13.359375 7.859375 -13.359375 7.859375 -13.359375 C 8.992188 -13.359375 9.96875 -13.726562 10.78125 -14.46875 C 11.601562 -15.21875 12.015625 -16.375 12.015625 -17.9375 C 12.015625 -20.882812 10.394531 -22.359375 7.15625 -22.359375 Z M 6.71875 -22.359375 "/></g></g></g></g><g fill="#ffffff" fill-opacity="1"><g transform="translate(20.335858, 30.775993)"><g><path d="M 9.265625 -15.625 C 9.179688 -15.914062 9.140625 -16.164062 9.140625 -16.375 C 9.140625 -16.59375 9.148438 -16.832031 9.171875 -17.09375 C 9.191406 -17.363281 9.238281 -17.734375 9.3125 -18.203125 C 9.394531 -18.671875 9.546875 -19.132812 9.765625 -19.59375 C 9.992188 -20.050781 10.253906 -20.488281 10.546875 -20.90625 C 10.835938 -21.332031 11.207031 -21.722656 11.65625 -22.078125 C 12.113281 -22.441406 12.625 -22.757812 13.1875 -23.03125 C 14.363281 -23.601562 15.800781 -23.890625 17.5 -23.890625 C 20.914062 -23.890625 23.695312 -22.757812 25.84375 -20.5 C 28 -18.238281 29.078125 -15.34375 29.078125 -11.8125 C 29.078125 -8.289062 27.804688 -5.363281 25.265625 -3.03125 C 22.722656 -0.695312 19.5 0.46875 15.59375 0.46875 C 11.6875 0.46875 8.445312 -0.691406 5.875 -3.015625 C 3.300781 -5.335938 2.015625 -8.347656 2.015625 -12.046875 C 2.015625 -14.429688 2.570312 -16.550781 3.6875 -18.40625 C 4.800781 -20.257812 6.394531 -21.710938 8.46875 -22.765625 L 8.671875 -22.453125 C 7.222656 -21.492188 6.175781 -20.109375 5.53125 -18.296875 C 4.894531 -16.492188 4.578125 -14.578125 4.578125 -12.546875 C 4.578125 -8.773438 5.601562 -5.828125 7.65625 -3.703125 C 9.71875 -1.585938 12.351562 -0.53125 15.5625 -0.53125 C 18.769531 -0.53125 21.394531 -1.59375 23.4375 -3.71875 C 25.476562 -5.851562 26.5 -8.664062 26.5 -12.15625 C 26.5 -15.164062 25.691406 -17.707031 24.078125 -19.78125 C 22.460938 -21.851562 20.179688 -22.890625 17.234375 -22.890625 C 15.921875 -22.890625 14.726562 -22.65625 13.65625 -22.1875 C 11.71875 -21.363281 10.4375 -20.003906 9.8125 -18.109375 C 9.625 -17.546875 9.53125 -17.0625 9.53125 -16.65625 C 9.53125 -16.257812 9.554688 -15.941406 9.609375 -15.703125 Z M 9.265625 -15.625 "/></g></g></g><g fill="#ffffff" fill-opacity="1"><g transform="translate(51.01975, 30.775993)"><g><path d="M 35.3125 5.09375 C 33.519531 5.644531 31.910156 5.742188 30.484375 5.390625 C 28.992188 4.984375 27.703125 4.359375 26.609375 3.515625 C 25.554688 2.671875 24.484375 1.65625 23.390625 0.46875 L 5.75 -19.078125 L 5.75 -2.34375 C 5.769531 -1.5625 6.117188 -0.984375 6.796875 -0.609375 C 7.109375 -0.421875 7.441406 -0.328125 7.796875 -0.328125 L 8.4375 -0.328125 L 8.4375 0 L 1.53125 0 L 1.53125 -0.328125 L 2.171875 -0.328125 C 2.734375 -0.328125 3.210938 -0.519531 3.609375 -0.90625 C 4.015625 -1.300781 4.21875 -1.789062 4.21875 -2.375 L 4.21875 -20.75 C 4.101562 -20.90625 3.878906 -21.203125 3.546875 -21.640625 C 3.210938 -22.078125 2.929688 -22.425781 2.703125 -22.6875 C 2.484375 -22.957031 2.179688 -23.3125 1.796875 -23.75 C 1.421875 -24.1875 1.070312 -24.535156 0.75 -24.796875 C 0.425781 -25.066406 0.0507812 -25.378906 -0.375 -25.734375 C -1.039062 -26.242188 -1.753906 -26.609375 -2.515625 -26.828125 C -3.273438 -27.054688 -3.914062 -27.171875 -4.4375 -27.171875 C -4.957031 -27.171875 -5.519531 -27.082031 -6.125 -26.90625 L -6.265625 -27.25 C -5.191406 -27.6875 -4.15625 -27.90625 -3.15625 -27.90625 C -2.164062 -27.90625 -1.3125 -27.785156 -0.59375 -27.546875 C 0.113281 -27.316406 0.878906 -26.898438 1.703125 -26.296875 C 2.523438 -25.703125 3.195312 -25.144531 3.71875 -24.625 C 4.25 -24.113281 4.882812 -23.445312 5.625 -22.625 L 22.484375 -3.875 L 22.484375 -21.046875 C 22.460938 -21.628906 22.25 -22.113281 21.84375 -22.5 C 21.445312 -22.894531 20.96875 -23.09375 20.40625 -23.09375 L 19.78125 -23.09375 L 19.78125 -23.421875 L 26.671875 -23.421875 L 26.671875 -23.09375 L 26.0625 -23.09375 C 25.507812 -23.09375 25.03125 -22.894531 24.625 -22.5 C 24.226562 -22.113281 24.019531 -21.640625 24 -21.078125 L 24 -2.171875 C 24.21875 -1.929688 24.53125 -1.5625 24.9375 -1.0625 C 25.351562 -0.570312 25.644531 -0.226562 25.8125 -0.03125 C 25.976562 0.164062 26.226562 0.453125 26.5625 0.828125 C 26.90625 1.210938 27.191406 1.507812 27.421875 1.71875 C 27.660156 1.9375 27.953125 2.207031 28.296875 2.53125 C 28.640625 2.851562 28.960938 3.109375 29.265625 3.296875 C 29.566406 3.484375 29.90625 3.703125 30.28125 3.953125 C 30.820312 4.265625 31.429688 4.5 32.109375 4.65625 C 32.785156 4.8125 33.34375 4.890625 33.78125 4.890625 C 34.21875 4.890625 34.679688 4.84375 35.171875 4.75 Z M 35.3125 5.09375 "/></g></g></g><g fill="#ffffff" fill-opacity="1"><g transform="translate(78.75908, 30.775993)"><g><path d="M 3.984375 -8.90625 C 2.828125 -7.382812 2.25 -5.742188 2.25 -3.984375 C 2.25 -1.890625 3.128906 -0.257812 4.890625 0.90625 C 5.910156 1.59375 7.070312 1.9375 8.375 1.9375 C 9.6875 1.9375 10.820312 1.679688 11.78125 1.171875 C 13.582031 0.234375 14.597656 -1.335938 14.828125 -3.546875 C 14.847656 -3.703125 14.859375 -3.859375 14.859375 -4.015625 C 14.859375 -4.835938 14.628906 -5.726562 14.171875 -6.6875 C 13.710938 -7.65625 12.972656 -8.539062 11.953125 -9.34375 L 5.921875 -14.09375 C 4.609375 -15.113281 3.953125 -16.4375 3.953125 -18.0625 C 3.953125 -19.695312 4.472656 -21.078125 5.515625 -22.203125 C 6.566406 -23.328125 7.984375 -23.890625 9.765625 -23.890625 C 10.660156 -23.890625 11.632812 -23.78125 12.6875 -23.5625 L 14.015625 -23.5625 L 14.09375 -19.453125 L 13.75 -19.453125 C 13.726562 -20.515625 13.34375 -21.351562 12.59375 -21.96875 C 11.851562 -22.582031 10.914062 -22.890625 9.78125 -22.890625 C 8.65625 -22.890625 7.710938 -22.515625 6.953125 -21.765625 C 6.203125 -21.023438 5.828125 -20.066406 5.828125 -18.890625 C 5.828125 -17.722656 6.316406 -16.75 7.296875 -15.96875 L 13.484375 -11.078125 C 15.941406 -9.140625 17.171875 -6.796875 17.171875 -4.046875 C 17.171875 -1.992188 16.351562 -0.234375 14.71875 1.234375 C 13.320312 2.503906 11.453125 3.140625 9.109375 3.140625 C 7.679688 3.140625 6.40625 2.875 5.28125 2.34375 C 3.1875 1.363281 1.925781 -0.304688 1.5 -2.671875 C 1.4375 -3.035156 1.40625 -3.488281 1.40625 -4.03125 C 1.40625 -4.582031 1.5625 -5.332031 1.875 -6.28125 C 2.1875 -7.226562 2.789062 -8.179688 3.6875 -9.140625 Z M 3.984375 -8.90625 "/></g></g></g><g fill="#ffffff" fill-opacity="1"><g transform="translate(96.727735, 30.775993)"><g><path d="M 9.265625 -15.625 C 9.179688 -15.914062 9.140625 -16.164062 9.140625 -16.375 C 9.140625 -16.59375 9.148438 -16.832031 9.171875 -17.09375 C 9.191406 -17.363281 9.238281 -17.734375 9.3125 -18.203125 C 9.394531 -18.671875 9.546875 -19.132812 9.765625 -19.59375 C 9.992188 -20.050781 10.253906 -20.488281 10.546875 -20.90625 C 10.835938 -21.332031 11.207031 -21.722656 11.65625 -22.078125 C 12.113281 -22.441406 12.625 -22.757812 13.1875 -23.03125 C 14.363281 -23.601562 15.800781 -23.890625 17.5 -23.890625 C 20.914062 -23.890625 23.695312 -22.757812 25.84375 -20.5 C 28 -18.238281 29.078125 -15.34375 29.078125 -11.8125 C 29.078125 -8.289062 27.804688 -5.363281 25.265625 -3.03125 C 22.722656 -0.695312 19.5 0.46875 15.59375 0.46875 C 11.6875 0.46875 8.445312 -0.691406 5.875 -3.015625 C 3.300781 -5.335938 2.015625 -8.347656 2.015625 -12.046875 C 2.015625 -14.429688 2.570312 -16.550781 3.6875 -18.40625 C 4.800781 -20.257812 6.394531 -21.710938 8.46875 -22.765625 L 8.671875 -22.453125 C 7.222656 -21.492188 6.175781 -20.109375 5.53125 -18.296875 C 4.894531 -16.492188 4.578125 -14.578125 4.578125 -12.546875 C 4.578125 -8.773438 5.601562 -5.828125 7.65625 -3.703125 C 9.71875 -1.585938 12.351562 -0.53125 15.5625 -0.53125 C 18.769531 -0.53125 21.394531 -1.59375 23.4375 -3.71875 C 25.476562 -5.851562 26.5 -8.664062 26.5 -12.15625 C 26.5 -15.164062 25.691406 -17.707031 24.078125 -19.78125 C 22.460938 -21.851562 20.179688 -22.890625 17.234375 -22.890625 C 15.921875 -22.890625 14.726562 -22.65625 13.65625 -22.1875 C 11.71875 -21.363281 10.4375 -20.003906 9.8125 -18.109375 C 9.625 -17.546875 9.53125 -17.0625 9.53125 -16.65625 C 9.53125 -16.257812 9.554688 -15.941406 9.609375 -15.703125 Z M 9.265625 -15.625 "/></g></g></g><g fill="#ffffff" fill-opacity="1"><g transform="translate(127.411627, 30.775993)"><g><path d="M 10.78125 -0.328125 L 11.203125 -0.328125 L 11.203125 0 L 3.875 0 L 3.875 -0.328125 L 4.3125 -0.328125 C 4.894531 -0.328125 5.394531 -0.535156 5.8125 -0.953125 C 6.238281 -1.367188 6.453125 -1.863281 6.453125 -2.4375 L 6.453125 -22.53125 L 2.875 -22.328125 C 0.625 -22.191406 -0.5 -21.375 -0.5 -19.875 C -0.5 -19.28125 -0.304688 -18.769531 0.078125 -18.34375 C 0.472656 -17.914062 1.09375 -17.679688 1.9375 -17.640625 L 1.9375 -17.4375 C 1.625 -17.375 1.3125 -17.34375 1 -17.34375 C 0.0195312 -17.34375 -0.710938 -17.734375 -1.203125 -18.515625 C -1.492188 -18.953125 -1.640625 -19.441406 -1.640625 -19.984375 C -1.640625 -21.878906 -0.203125 -22.984375 2.671875 -23.296875 C 2.691406 -23.296875 3.800781 -23.367188 6 -23.515625 C 8.195312 -23.660156 9.929688 -23.851562 11.203125 -24.09375 L 11.28125 -23.765625 C 10.320312 -23.609375 9.640625 -23.285156 9.234375 -22.796875 C 8.828125 -22.304688 8.625 -21.625 8.625 -20.75 L 8.625 -2.4375 C 8.65625 -1.863281 8.875 -1.367188 9.28125 -0.953125 C 9.695312 -0.535156 10.195312 -0.328125 10.78125 -0.328125 Z M 10.78125 -0.328125 "/></g></g></g></g></g><g clip-path="url(#5aba4a5b7c)"><path fill="#00bf63" d="M 31.367188 73.863281 C 30.632812 75.558594 29.988281 80.164062 29.988281 80.164062 C 31.367188 78.449219 31.367188 73.863281 31.367188 73.863281 Z M 29.449219 81.539062 C 29.449219 81.539062 27.308594 77.597656 31.816406 71.285156 C 31.816406 71.285156 34.292969 77.144531 29.449219 81.539062 Z M 24.03125 77.308594 C 22.113281 75.980469 16.894531 75.535156 16.894531 75.535156 C 19.332031 76.664062 24.03125 77.308594 24.03125 77.308594 Z M 17.992188 70.269531 C 16.765625 69.40625 16.027344 68.34375 13.054688 68.25 C 11.121094 68.191406 9.214844 66.824219 9.214844 66.824219 C 9.214844 66.824219 11.285156 68.742188 13.421875 68.742188 C 15.558594 68.742188 17.992188 70.269531 17.992188 70.269531 Z M 13.421875 63.132812 C 13.421875 63.132812 9.144531 60.425781 7.652344 58.949219 C 7.609375 58.90625 10.273438 62.863281 13.421875 63.132812 Z M 12.0625 55.515625 C 9.457031 49.492188 5.308594 48.324219 5.476562 48.433594 C 8.210938 50.265625 12.0625 55.515625 12.0625 55.515625 Z M 11.429688 47.414062 C 11.429688 47.414062 8.214844 39.734375 4.054688 39.269531 C 4.054688 39.269531 7.824219 41.191406 11.429688 47.414062 Z M 11.640625 38.425781 C 11.054688 35.71875 7.652344 30.113281 7.652344 30.113281 C 8.234375 31.921875 11.640625 38.425781 11.640625 38.425781 Z M 13.421875 30.621094 C 13.210938 29.519531 10.707031 23.117188 10.707031 23.117188 C 10.664062 25.957031 13.421875 30.621094 13.421875 30.621094 Z M 16.261719 23.117188 C 16.261719 23.117188 15.058594 15.292969 14.566406 13.574219 C 14.566406 13.574219 14.566406 20.300781 16.261719 23.117188 Z M 20.628906 18.746094 C 20.628906 18.746094 22.476562 14.386719 25.378906 11.453125 C 28.285156 8.519531 28.816406 6.238281 28.816406 6.238281 C 28.816406 6.238281 27.753906 8.910156 24.914062 11.285156 C 22.074219 13.660156 20.628906 18.746094 20.628906 18.746094 Z M 18.59375 26.253906 C 22.496094 23.582031 28.816406 22.734375 28.816406 22.734375 C 23.152344 22.089844 18.59375 26.253906 18.59375 26.253906 Z M 14.777344 34.3125 C 14.796875 34.261719 14.816406 34.210938 14.832031 34.164062 C 14.796875 34.253906 14.777344 34.3125 14.777344 34.3125 Z M 14.910156 33.976562 C 14.964844 33.859375 15.03125 33.71875 15.117188 33.558594 C 16.0625 31.925781 18.125 32.089844 21.078125 31.492188 C 24.429688 30.8125 25.890625 28.671875 25.890625 28.671875 C 24.914062 29.5625 21.476562 30.914062 18.359375 31.34375 C 16.621094 31.582031 15.59375 32.679688 15.117188 33.558594 C 15.042969 33.6875 14.976562 33.828125 14.910156 33.976562 Z M 13.929688 42.792969 C 14.410156 39.976562 16.648438 39.535156 18.359375 38.726562 C 20.144531 37.878906 22.074219 37.152344 22.074219 37.152344 C 20.332031 37.683594 19.230469 37.40625 16.472656 39.019531 C 13.71875 40.628906 13.902344 42.945312 13.929688 42.792969 Z M 14.777344 52.675781 C 16.058594 48.40625 17.238281 47.671875 19.144531 46.609375 C 21.054688 45.550781 21.476562 44.191406 21.476562 44.191406 C 21.476562 44.191406 20.25 45.929688 17.746094 46.992188 C 15.246094 48.050781 14.761719 52.730469 14.777344 52.675781 Z M 17.164062 59.6875 C 17.15625 57.632812 18.421875 56.339844 19.75 54.664062 C 21.078125 52.992188 21.078125 50.972656 21.078125 50.972656 C 21.078125 50.972656 20.257812 53.464844 18.4375 55.335938 C 16.617188 57.207031 17.164062 59.917969 17.164062 59.6875 Z M 20.332031 65.542969 C 20.34375 65.621094 20.3125 65.273438 20.34375 64.722656 C 20.570312 63.214844 21.84375 61.640625 22.519531 60.769531 C 23.320312 59.734375 24.261719 57.078125 24.261719 57.078125 C 24.261719 57.078125 23.203125 59.269531 21.476562 61.039062 C 20.375 62.171875 20.398438 63.738281 20.34375 64.722656 C 20.300781 65 20.292969 65.277344 20.332031 65.542969 Z M 25.125 72.804688 C 25.285156 71.304688 25.246094 69.304688 26.71875 66.824219 C 27.421875 65.644531 27.835938 64.640625 28.082031 63.914062 C 28.261719 63.5 28.382812 63.09375 28.414062 62.640625 C 28.414062 62.640625 28.089844 63.40625 27.820312 64.210938 C 27.386719 65.195312 26.527344 66.035156 25.589844 67.738281 C 24.257812 70.148438 25.085938 73.175781 25.125 72.804688 Z M 29.117188 81.1875 C 29.226562 81.308594 29.335938 81.421875 29.449219 81.539062 C 29.34375 81.445312 29.246094 81.351562 29.140625 81.253906 C 29.144531 81.257812 29.144531 81.261719 29.144531 81.261719 L 29.128906 81.242188 C 27.90625 80.109375 26.765625 78.953125 25.695312 77.785156 C 16.761719 80.542969 14.761719 74.5625 14.761719 74.5625 C 20.046875 74.167969 23.394531 75.871094 24.929688 76.929688 C 23.25 75.015625 21.765625 73.066406 20.460938 71.09375 C 19.355469 70.910156 17.652344 71.667969 13.332031 71.285156 C 8.257812 70.835938 6.679688 63.847656 6.679688 63.847656 C 6.679688 63.847656 7.582031 65.539062 12.316406 66.324219 C 15.578125 66.867188 18.460938 69.015625 19.941406 70.300781 C 18.773438 68.464844 17.753906 66.613281 16.878906 64.765625 C 15.625 64.101562 13.609375 64.386719 9.949219 63.847656 C 6.117188 63.28125 4.765625 56.070312 4.765625 56.070312 C 11.523438 59.0625 15.714844 63.375 16.777344 64.550781 C 16.066406 63.027344 15.445312 61.507812 14.910156 59.996094 L 13.839844 58.550781 C 12.316406 56.859375 9.273438 55.617188 6.679688 53.476562 C 4.089844 51.335938 2.738281 46.601562 2.738281 46.601562 C 2.738281 46.601562 5.101562 45.363281 8.9375 49.195312 C 11.257812 51.519531 12.566406 54.460938 13.234375 56.417969 L 14.652344 59.246094 C 13.550781 55.960938 12.851562 52.722656 12.476562 49.621094 C 11.480469 48.558594 9.300781 46.988281 6.679688 44.910156 C 3.414062 42.320312 2.738281 37.699219 2.738281 37.699219 C 7.71875 38.109375 10.429688 42.652344 11.789062 46.171875 C 10.242188 42.082031 7.007812 35.960938 7.007812 35.960938 C 9.304688 39.332031 11.292969 43.527344 12.160156 45.449219 C 12.109375 43.765625 12.144531 42.140625 12.261719 40.585938 C 11.742188 39.546875 10.089844 37.914062 8.289062 34.597656 C 6.171875 30.710938 6.679688 28.117188 6.679688 28.117188 C 11.183594 30.117188 12.167969 36.246094 12.378906 39.304688 C 12.394531 39.128906 12.410156 38.949219 12.433594 38.777344 C 12.703125 36.476562 13.121094 34.457031 13.621094 32.6875 C 8.460938 28.78125 10.0625 21.355469 10.0625 21.355469 C 14.292969 23.429688 14.425781 28.332031 14.140625 31.015625 C 14.855469 28.921875 15.664062 27.25 16.429688 25.953125 C 11.664062 16.839844 14.234375 11.4375 14.234375 11.4375 C 18.335938 15.324219 16.605469 25.097656 16.449219 25.914062 C 16.777344 25.363281 17.09375 24.882812 17.390625 24.464844 C 17.617188 24.152344 18.324219 21.367188 18.160156 18.136719 C 18 14.90625 18.84375 12.519531 21.03125 9.882812 C 21.03125 9.882812 18.445312 13.164062 18.59375 16.894531 C 18.746094 20.625 18.5625 20.824219 18.140625 23.246094 C 18.808594 21.945312 19.472656 20.199219 19.472656 20.199219 L 19.472656 20.203125 C 19.738281 17.773438 20.367188 14.3125 23.472656 10.199219 C 27.644531 4.675781 29.335938 5.351562 31.589844 1.972656 C 31.589844 1.972656 30.238281 9.410156 27.53125 12.566406 C 25.066406 15.441406 21.480469 19 19.707031 21.585938 L 19.539062 21.832031 C 19.429688 21.996094 19.328125 22.15625 19.238281 22.3125 C 19.238281 22.296875 19.242188 22.277344 19.246094 22.261719 L 19.164062 22.378906 C 19.210938 22.335938 19.238281 22.3125 19.238281 22.3125 C 19.238281 22.3125 19.183594 22.375 19.082031 22.496094 L 17.507812 24.796875 C 17.054688 25.5625 16.550781 26.503906 16.046875 27.621094 C 21.773438 18.570312 27.351562 17.492188 27.351562 17.492188 C 20.464844 20.226562 15.464844 29 15.464844 29 C 16.539062 27.28125 18.359375 25.570312 18.359375 25.570312 C 19.71875 23.835938 22.117188 21.5625 25.457031 21.355469 C 30.914062 21.019531 31.589844 21.917969 31.589844 21.917969 C 31.589844 21.917969 24.996094 27.847656 18.390625 27.675781 C 18.378906 27.675781 18.371094 27.679688 18.359375 27.679688 C 16.8125 27.773438 15.753906 28.792969 15.386719 29.203125 C 14.65625 31.085938 13.984375 33.347656 13.535156 35.988281 C 13.980469 34.765625 14.613281 33.21875 15.054688 32.523438 C 15.054688 32.523438 15.054688 32.519531 15.054688 32.519531 C 15.878906 30.933594 17.242188 29.429688 19.496094 29.132812 C 24.601562 28.457031 28.433594 25.976562 28.433594 25.976562 C 28.433594 25.976562 27.085938 32.402344 22.519531 33.527344 C 19.367188 34.304688 16.78125 34.492188 15.238281 35.238281 C 15.203125 35.261719 13.820312 36.203125 13.199219 38.4375 C 13.054688 39.792969 12.972656 41.230469 12.96875 42.753906 C 12.96875 43.296875 12.972656 43.828125 12.980469 44.355469 C 13.054688 42.523438 13.601562 39.140625 16.441406 37.699219 C 20.429688 35.667969 21.898438 37.359375 24.152344 35.558594 C 24.152344 35.558594 23.402344 39.390625 19.496094 41.191406 C 15.605469 42.984375 13.609375 43.238281 13.003906 45.550781 C 13.117188 49.4375 13.503906 53.003906 14.304688 56.4375 C 14.253906 55.484375 14.195312 54.21875 14.199219 53.558594 L 14.203125 53.554688 C 14.152344 51.007812 14.429688 46.765625 16.441406 45.699219 C 19.417969 44.121094 21.96875 43.898438 22.382812 41.980469 C 22.382812 41.980469 23.25 46.714844 20.601562 48.632812 C 18.847656 49.898438 16.898438 51.167969 15.632812 52.761719 C 15.332031 53.160156 14.214844 54.917969 14.773438 58.25 C 15.335938 60.257812 16.054688 62.234375 16.957031 64.207031 C 16.546875 61.234375 16.539062 60.007812 16.550781 59.65625 C 16.3125 57.535156 16.34375 54.699219 17.839844 53.140625 C 20.429688 50.433594 22.382812 48.632812 22.382812 48.632812 C 22.382812 48.632812 23.023438 53.476562 21.785156 56.070312 C 20.59375 58.558594 17.125 60.734375 17.050781 62.203125 C 17.070312 63.484375 17.402344 65.054688 17.441406 65.226562 C 18.113281 66.597656 18.871094 67.972656 19.738281 69.363281 L 19.53125 68.578125 C 19.59375 69.027344 18.402344 62.269531 20.996094 59.449219 C 23.585938 56.632812 23.675781 56.183594 24.535156 54.605469 C 24.535156 54.605469 26.605469 59.113281 24.535156 62.605469 C 23.070312 65.070312 21.074219 66.253906 20.101562 67.285156 C 19.65625 68.125 19.882812 69.238281 20.101562 69.929688 C 20.386719 70.378906 20.683594 70.832031 20.996094 71.285156 C 21.703125 72.324219 22.46875 73.375 23.296875 74.445312 C 20.988281 68.773438 23.515625 66.4375 23.515625 66.4375 C 21.449219 69.910156 24.105469 75.421875 24.15625 75.53125 C 24.652344 76.148438 25.167969 76.769531 25.703125 77.398438 C 24.722656 75.792969 24.433594 73.082031 24.433594 73.082031 C 24.066406 71.15625 23.871094 68.453125 25.050781 66.550781 C 27.082031 63.28125 28.941406 60.464844 28.941406 60.464844 C 28.941406 60.464844 30.796875 65.539062 28.941406 68.46875 C 27.691406 70.4375 26.3125 72.308594 25.578125 73.730469 C 25.019531 75.21875 26.335938 78.070312 26.390625 78.191406 C 27.117188 79.019531 27.875 79.859375 28.671875 80.714844 C 26.445312 74.960938 29.144531 72.179688 29.144531 72.179688 C 27.15625 75.808594 28.875 80.5625 29.117188 81.1875 Z M 20.035156 81.25 C 17.796875 81.398438 16.503906 82.097656 16.894531 81.957031 C 17.285156 81.816406 19.734375 80.902344 23.753906 82.109375 C 27.773438 83.320312 29.449219 81.539062 29.449219 81.539062 L 29.144531 81.261719 C 26.558594 83.484375 22.273438 81.101562 20.035156 81.25 Z M 23.515625 52.84375 C 25.421875 51.824219 24.957031 49.789062 24.957031 49.789062 C 23.472656 50.597656 23.515625 52.84375 23.515625 52.84375 Z M 22.136719 81.402344 C 22.136719 81.402344 24.847656 81.167969 25.925781 80.179688 C 25.925781 80.179688 23.226562 79.570312 22.136719 81.402344 Z M 8.925781 73.453125 C 8.925781 73.453125 10.535156 74.046875 12.785156 72.988281 C 12.785156 72.988281 10.324219 72.351562 8.925781 73.453125 Z M 17.320312 13.53125 C 17.320312 13.53125 16.871094 9.574219 18.011719 7.695312 C 18.011719 7.695312 19.609375 9.945312 17.320312 13.53125 " fill-opacity="1" fill-rule="nonzero"/></g><g transform="matrix(1, 0, 0, 1, 69, 43)"><g clip-path="url(#17c42c96ab)"><g fill="#ffffff" fill-opacity="1"><g transform="translate(0.238159, 30.001225)"><g><path d="M 9.1875 -7.703125 L 4.75 -8.75 C 3.519531 -9.039062 2.628906 -9.539062 2.078125 -10.25 C 1.535156 -10.96875 1.265625 -11.960938 1.265625 -13.234375 C 1.265625 -15.085938 1.796875 -16.453125 2.859375 -17.328125 C 3.921875 -18.210938 5.570312 -18.65625 7.8125 -18.65625 C 8.75 -18.65625 9.59375 -18.609375 10.34375 -18.515625 C 11.101562 -18.429688 11.800781 -18.300781 12.4375 -18.125 L 12.4375 -15.875 C 11.625 -16.0625 10.84375 -16.191406 10.09375 -16.265625 C 9.351562 -16.347656 8.582031 -16.390625 7.78125 -16.390625 C 6.28125 -16.390625 5.226562 -16.171875 4.625 -15.734375 C 4.019531 -15.296875 3.71875 -14.519531 3.71875 -13.40625 C 3.71875 -12.707031 3.859375 -12.175781 4.140625 -11.8125 C 4.421875 -11.445312 4.882812 -11.1875 5.53125 -11.03125 L 9.953125 -9.984375 C 11.515625 -9.609375 12.550781 -9.082031 13.0625 -8.40625 C 13.582031 -7.738281 13.84375 -6.703125 13.84375 -5.296875 C 13.84375 -3.285156 13.320312 -1.859375 12.28125 -1.015625 C 11.238281 -0.179688 9.582031 0.234375 7.3125 0.234375 C 6.125 0.234375 4.976562 0.15625 3.875 0 C 2.769531 -0.15625 1.898438 -0.359375 1.265625 -0.609375 L 1.265625 -2.953125 C 2.179688 -2.679688 3.15625 -2.472656 4.1875 -2.328125 C 5.21875 -2.179688 6.257812 -2.109375 7.3125 -2.109375 C 8.78125 -2.109375 9.804688 -2.320312 10.390625 -2.75 C 10.972656 -3.175781 11.265625 -4.003906 11.265625 -5.234375 C 11.265625 -6.003906 11.125 -6.554688 10.84375 -6.890625 C 10.5625 -7.234375 10.007812 -7.503906 9.1875 -7.703125 Z M 9.1875 -7.703125 "/></g></g></g><g fill="#ffffff" fill-opacity="1"><g transform="translate(14.994517, 30.001225)"><g><path d="M 3.25 2.578125 C 3.988281 2.578125 4.546875 2.414062 4.921875 2.09375 C 5.304688 1.769531 5.71875 1.003906 6.15625 -0.203125 L 0.234375 -14.46875 L 2.921875 -14.46875 L 7.375 -2.609375 L 11.59375 -14.46875 L 14.171875 -14.46875 L 8.25 0.96875 C 7.726562 2.375 7.113281 3.351562 6.40625 3.90625 C 5.707031 4.46875 4.800781 4.75 3.6875 4.75 C 3.351562 4.75 3.003906 4.726562 2.640625 4.6875 C 2.285156 4.644531 1.929688 4.59375 1.578125 4.53125 L 1.578125 2.4375 C 1.796875 2.488281 2.035156 2.523438 2.296875 2.546875 C 2.554688 2.566406 2.875 2.578125 3.25 2.578125 Z M 3.25 2.578125 "/></g></g></g><g fill="#ffffff" fill-opacity="1"><g transform="translate(29.487366, 30.001225)"><g><path d="M 6.90625 -12.59375 C 5.65625 -12.59375 4.789062 -12.445312 4.3125 -12.15625 C 3.84375 -11.863281 3.609375 -11.265625 3.609375 -10.359375 C 3.609375 -9.890625 3.71875 -9.535156 3.9375 -9.296875 C 4.164062 -9.054688 4.519531 -8.894531 5 -8.8125 L 8.71875 -8.25 C 9.894531 -8.082031 10.71875 -7.71875 11.1875 -7.15625 C 11.65625 -6.601562 11.890625 -5.726562 11.890625 -4.53125 C 11.890625 -2.851562 11.488281 -1.640625 10.6875 -0.890625 C 9.882812 -0.140625 8.554688 0.234375 6.703125 0.234375 C 5.585938 0.234375 4.550781 0.175781 3.59375 0.0625 C 2.644531 -0.0507812 1.859375 -0.207031 1.234375 -0.40625 L 1.234375 -2.671875 C 1.859375 -2.472656 2.625 -2.304688 3.53125 -2.171875 C 4.4375 -2.046875 5.367188 -1.984375 6.328125 -1.984375 C 7.535156 -1.984375 8.363281 -2.160156 8.8125 -2.515625 C 9.257812 -2.867188 9.484375 -3.492188 9.484375 -4.390625 C 9.484375 -4.953125 9.351562 -5.363281 9.09375 -5.625 C 8.84375 -5.894531 8.390625 -6.078125 7.734375 -6.171875 L 4.015625 -6.734375 C 3.078125 -6.867188 2.378906 -7.226562 1.921875 -7.8125 C 1.460938 -8.40625 1.222656 -9.253906 1.203125 -10.359375 C 1.203125 -11.890625 1.65625 -13.003906 2.5625 -13.703125 C 3.46875 -14.398438 4.867188 -14.75 6.765625 -14.75 C 7.546875 -14.75 8.253906 -14.726562 8.890625 -14.6875 C 9.523438 -14.65625 10.191406 -14.582031 10.890625 -14.46875 L 10.890625 -12.328125 C 10.378906 -12.398438 9.78125 -12.460938 9.09375 -12.515625 C 8.414062 -12.566406 7.6875 -12.59375 6.90625 -12.59375 Z M 6.90625 -12.59375 "/></g></g></g><g fill="#ffffff" fill-opacity="1"><g transform="translate(42.340604, 30.001225)"><g><path d="M 10.421875 -2.25 L 10.421875 -0.234375 C 10.109375 -0.0976562 9.679688 0.0078125 9.140625 0.09375 C 8.609375 0.1875 8.097656 0.234375 7.609375 0.234375 C 5.859375 0.234375 4.601562 -0.15625 3.84375 -0.9375 C 3.09375 -1.71875 2.71875 -3.066406 2.71875 -4.984375 L 2.71875 -12.421875 L 0.5625 -12.421875 L 0.5625 -14.46875 L 2.75 -14.46875 L 3.140625 -17.984375 L 5.125 -17.984375 L 5.125 -14.46875 L 10.28125 -14.46875 L 10.28125 -12.421875 L 5.125 -12.421875 L 5.125 -5.0625 C 5.125 -3.875 5.34375 -3.0625 5.78125 -2.625 C 6.21875 -2.195312 6.992188 -1.984375 8.109375 -1.984375 C 8.460938 -1.984375 8.867188 -2.015625 9.328125 -2.078125 C 9.785156 -2.140625 10.148438 -2.195312 10.421875 -2.25 Z M 10.421875 -2.25 "/></g></g></g><g fill="#ffffff" fill-opacity="1"><g transform="translate(53.202898, 30.001225)"><g><path d="M 12.796875 -2.8125 L 12.796875 -0.796875 C 12.285156 -0.515625 11.535156 -0.269531 10.546875 -0.0625 C 9.566406 0.132812 8.566406 0.234375 7.546875 0.234375 C 5.285156 0.234375 3.664062 -0.347656 2.6875 -1.515625 C 1.71875 -2.691406 1.234375 -4.625 1.234375 -7.3125 C 1.234375 -9.914062 1.738281 -11.804688 2.75 -12.984375 C 3.769531 -14.160156 5.390625 -14.75 7.609375 -14.75 C 9.679688 -14.75 11.164062 -14.285156 12.0625 -13.359375 C 12.957031 -12.429688 13.40625 -10.882812 13.40625 -8.71875 C 13.40625 -8.332031 13.394531 -7.972656 13.375 -7.640625 C 13.363281 -7.304688 13.328125 -6.90625 13.265625 -6.4375 L 3.65625 -6.4375 C 3.675781 -4.84375 4.003906 -3.703125 4.640625 -3.015625 C 5.273438 -2.328125 6.375 -1.984375 7.9375 -1.984375 C 8.769531 -1.984375 9.644531 -2.0625 10.5625 -2.21875 C 11.488281 -2.375 12.234375 -2.570312 12.796875 -2.8125 Z M 11.21875 -9.046875 C 11.195312 -10.335938 10.910156 -11.25 10.359375 -11.78125 C 9.816406 -12.320312 8.898438 -12.59375 7.609375 -12.59375 C 6.171875 -12.59375 5.148438 -12.285156 4.546875 -11.671875 C 3.953125 -11.054688 3.65625 -9.976562 3.65625 -8.4375 L 11.1875 -8.4375 C 11.1875 -8.46875 11.191406 -8.554688 11.203125 -8.703125 C 11.210938 -8.859375 11.21875 -8.972656 11.21875 -9.046875 Z M 11.21875 -9.046875 "/></g></g></g><g fill="#ffffff" fill-opacity="1"><g transform="translate(67.783571, 30.001225)"><g><path d="M 4.328125 0 L 1.9375 0 L 1.9375 -14.46875 L 4.125 -14.46875 L 4.25 -13.359375 L 4.328125 -13.359375 C 5.191406 -13.835938 5.972656 -14.1875 6.671875 -14.40625 C 7.378906 -14.632812 8.082031 -14.75 8.78125 -14.75 C 9.601562 -14.75 10.304688 -14.625 10.890625 -14.375 C 11.472656 -14.125 11.929688 -13.742188 12.265625 -13.234375 L 12.359375 -13.234375 C 13.140625 -13.722656 13.960938 -14.097656 14.828125 -14.359375 C 15.703125 -14.617188 16.578125 -14.75 17.453125 -14.75 C 18.835938 -14.75 19.882812 -14.382812 20.59375 -13.65625 C 21.3125 -12.925781 21.671875 -11.847656 21.671875 -10.421875 L 21.671875 0 L 19.265625 0 L 19.265625 -10.125 C 19.265625 -10.96875 19.039062 -11.585938 18.59375 -11.984375 C 18.144531 -12.390625 17.429688 -12.59375 16.453125 -12.59375 C 15.910156 -12.59375 15.335938 -12.507812 14.734375 -12.34375 C 14.128906 -12.175781 13.519531 -11.9375 12.90625 -11.625 C 12.945312 -11.425781 12.972656 -11.226562 12.984375 -11.03125 C 12.992188 -10.84375 13 -10.640625 13 -10.421875 L 13 0 L 10.59375 0 L 10.59375 -10.125 C 10.59375 -10.96875 10.367188 -11.585938 9.921875 -11.984375 C 9.472656 -12.390625 8.757812 -12.59375 7.78125 -12.59375 C 7.300781 -12.59375 6.785156 -12.507812 6.234375 -12.34375 C 5.691406 -12.175781 5.054688 -11.894531 4.328125 -11.5 Z M 4.328125 0 "/></g></g></g><g fill="#ffffff" fill-opacity="1"><g transform="translate(91.264893, 30.001225)"><g><path d="M 6.90625 -12.59375 C 5.65625 -12.59375 4.789062 -12.445312 4.3125 -12.15625 C 3.84375 -11.863281 3.609375 -11.265625 3.609375 -10.359375 C 3.609375 -9.890625 3.71875 -9.535156 3.9375 -9.296875 C 4.164062 -9.054688 4.519531 -8.894531 5 -8.8125 L 8.71875 -8.25 C 9.894531 -8.082031 10.71875 -7.71875 11.1875 -7.15625 C 11.65625 -6.601562 11.890625 -5.726562 11.890625 -4.53125 C 11.890625 -2.851562 11.488281 -1.640625 10.6875 -0.890625 C 9.882812 -0.140625 8.554688 0.234375 6.703125 0.234375 C 5.585938 0.234375 4.550781 0.175781 3.59375 0.0625 C 2.644531 -0.0507812 1.859375 -0.207031 1.234375 -0.40625 L 1.234375 -2.671875 C 1.859375 -2.472656 2.625 -2.304688 3.53125 -2.171875 C 4.4375 -2.046875 5.367188 -1.984375 6.328125 -1.984375 C 7.535156 -1.984375 8.363281 -2.160156 8.8125 -2.515625 C 9.257812 -2.867188 9.484375 -3.492188 9.484375 -4.390625 C 9.484375 -4.953125 9.351562 -5.363281 9.09375 -5.625 C 8.84375 -5.894531 8.390625 -6.078125 7.734375 -6.171875 L 4.015625 -6.734375 C 3.078125 -6.867188 2.378906 -7.226562 1.921875 -7.8125 C 1.460938 -8.40625 1.222656 -9.253906 1.203125 -10.359375 C 1.203125 -11.890625 1.65625 -13.003906 2.5625 -13.703125 C 3.46875 -14.398438 4.867188 -14.75 6.765625 -14.75 C 7.546875 -14.75 8.253906 -14.726562 8.890625 -14.6875 C 9.523438 -14.65625 10.191406 -14.582031 10.890625 -14.46875 L 10.890625 -12.328125 C 10.378906 -12.398438 9.78125 -12.460938 9.09375 -12.515625 C 8.414062 -12.566406 7.6875 -12.59375 6.90625 -12.59375 Z M 6.90625 -12.59375 "/></g></g></g></g></g></g></g></g></svg>